[Header]
FileType HTR
DataType HTRS
FileVersion 1
NumSegments 22
NumFrames 5
DataFrameRate 24
EulerRotationOrder ZYX
CalibrationUnits mm
RotationUnits Degrees
GlobalAxisofGravity Y
BoneLengthAxis Y
ScaleFactor 1.0
[SegmentNames&Hierarchy]
reference	GLOBAL
Hips	reference
Spine	Hips
Spine1	Spine
Neck	Spine1
Head	Neck
LeftShoulder	Spine1
LeftArm	LeftShoulder
LeftForeArm	LeftArm
LeftHand	LeftForeArm
RightShoulder	Spine1
RightArm	RightShoulder
RightForeArm	RightArm
RightHand	RightForeArm
LeftUpLeg	Hips
LeftLeg	LeftUpLeg
LeftFoot	LeftLeg
LeftToeBase	LeftFoot
RightUpLeg	Hips
RightLeg	RightUpLeg
RightFoot	RightLeg
RightToeBase	RightFoot
[BasePosition]
reference	0	0	0	0	0	0	1
Hips	0	0	0	0	0	0	1
Spine	0	0	0	0	-0	90	1
Spine1	0	0	0	0	0	0	1
Neck	0	0	0	-7.352430803	-7.352430803	90	1
Head	0	0	0	0	-0	90	1
LeftShoulder	0	0	0	0	0	0	1
LeftArm	0	0	0	0	0	0	1
LeftForeArm	0	0	0	0	0	0	1
LeftHand	0	0	0	0	0	0	1
RightShoulder	0	0	0	0	-0	180	1
RightArm	0	0	0	0	-0	180	1
RightForeArm	0	0	0	0	-0	180	1
RightHand	0	0	0	0	-0	180	1
LeftUpLeg	0	0	0	0	-0	-90	1
LeftLeg	0	0	0	0	-0	-90	1
LeftFoot	0	0	0	66.57150701	-66.57150701	-90	1
LeftToeBase	0	0	0	0	-90	0	1
RightUpLeg	0	0	0	0	-0	-90	1
RightLeg	0	0	0	0	-0	-90	1
RightFoot	0	0	0	66.57150701	-66.57150701	-90	1
RightToeBase	0	0	0	0	-90	0	1
[reference]
74	0	0	0	0	-0	0	1.0
75	0	0	0	0	-0	0	1.0
76	0	0	0	0	-0	0	1.0
77	0	0	0	0	-0	0	1.0
78	0	0	0	0	-0	0	1.0
[Hips]
74	5.296297073	8.504410744	9.042434692	2.190431356	-142.8878326	0.5049886107	1.0
75	5.351175308	8.650600433	9.101192474	1.136813641	-143.9118805	1.217575073	1.0
76	5.404280663	8.668242455	9.140363693	-0.2045326084	-145.306839	1.988799095	1.0
77	5.466516018	8.674617767	9.187273026	-1.55396235	-145.8389282	2.132314205	1.0
78	5.527982235	8.680620193	9.272019386	1.127420187	-145.5211334	-0.6005336642	1.0
[Spine]
74	0	0.7478299737	0	-5.249275684	0.8887594938	-88.38290405	1.0
75	0	0.7478299737	0	-5.685276031	0.239937067	-88.89388275	1.0
76	0	0.7478299737	0	-5.863707066	-0.02769544348	-89.14046478	1.0
77	0	0.7478299737	0	-6.206706047	-0.2310852259	-89.37532806	1.0
78	0	0.7478299737	0	-7.191136837	-0.5389567018	-90.57738495	1.0
[Spine1]
74	0	2.049309969	0	6.848348141	0.4911473095	-3.530002117	1.0
75	0	2.049309969	0	5.676860332	0.1287909001	-2.487367868	1.0
76	0	2.049309969	0	5.150252819	0.0531534031	-1.249750137	1.0
77	0	2.049309969	0	4.054844856	-0.047948502	-1.23815763	1.0
78	0	2.049309969	0	5.091083527	-0.04447592422	-2.058906317	1.0
[Neck]
74	0	2.231709957	0	-2.230994225	14.7218647	-86.1288681	1.0
75	0	2.231709957	0	-0.5110068917	15.17388725	-85.03242493	1.0
76	0	2.231709957	0	0.6331439614	15.54807663	-84.15668488	1.0
77	0	2.231709957	0	5.795704365	15.13026142	-82.38360596	1.0
78	0	2.231709957	0	8.175509453	14.76341629	-81.43667603	1.0
[Head]
74	0	1.413589954	0.1823999882	-10.27835083	7.947008133	-98.00592804	1.0
75	0	1.413589954	0.1823999882	-10.62299347	8.50683403	-98.72514343	1.0
76	0	1.413589954	0.1823999882	-10.35379791	8.9917202	-98.42604065	1.0
77	0	1.413589954	0.1823999882	-12.0306673	8.845154762	-98.95700836	1.0
78	0	1.413589954	0.1823999882	-12.98622894	8.62901783	-98.00757599	1.0
[LeftShoulder]
74	0.3649300039	1.825889945	-0.04271000251	-14.18928337	-10.67706966	2.696743727	1.0
75	0.3649300039	1.825889945	-0.04271000251	-13.83116245	-9.912631989	4.536465645	1.0
76	0.3649300039	1.825889945	-0.04271000251	-14.17052174	-9.673137665	6.221939087	1.0
77	0.3649300039	1.825889945	-0.04271000251	-11.54564381	-9.40591526	6.861544132	1.0
78	0.3649300039	1.825889945	-0.04271000251	-11.82175541	-8.567299843	8.668897629	1.0
[LeftArm]
74	1.24003005	0	0	57.8303833	-4.12751627	-75.04653931	1.0
75	1.24003005	0	0	61.11964798	-8.057873726	-73.63352203	1.0
76	1.24003005	0	0	63.9940033	-11.46643829	-72.2770462	1.0
77	1.24003005	0	0	62.33601761	-17.38466644	-69.21665192	1.0
78	1.24003005	0	0	61.2840004	-21.37269211	-68.07488251	1.0
[LeftForeArm]
74	2.847419977	0	0	-3.587923288	-53.16308975	-5.195869446	1.0
75	2.847419977	0	0	5.536589146	-66.90687561	-13.56879616	1.0
76	2.847419977	0	0	21.03974152	-78.75872803	-30.10092163	1.0
77	2.847419977	0	0	83.93921661	-82.16679382	-95.10708618	1.0
78	2.847419977	0	0	115.753746	-77.4744873	-129.4338837	1.0
[LeftHand]
74	2.258270025	0	0	-6.135517597	-13.27092743	-0.4514497519	1.0
75	2.258270025	0	0	-3.080245256	-14.49495983	-2.905802011	1.0
76	2.258270025	0	0	-3.057210922	-14.02641392	-6.360242844	1.0
77	2.258270025	0	0	-2.188586712	-12.51439571	-10.28055668	1.0
78	2.258270025	0	0	-2.571448565	-12.16381454	-10.02581024	1.0
[RightShoulder]
74	-0.3646599948	1.825889945	-0.04271000251	-9.872161865	8.962439537	175.3865662	1.0
75	-0.3646599948	1.825889945	-0.04271000251	-7.782180786	7.965941429	174.8162079	1.0
76	-0.3646599948	1.825889945	-0.04271000251	-7.455239296	6.923791885	173.7985687	1.0
77	-0.3646599948	1.825889945	-0.04271000251	-4.590880394	7.174364567	174.1986389	1.0
78	-0.3646599948	1.825889945	-0.04271000251	-3.844387054	6.698925018	173.9360504	1.0
[RightArm]
74	-1.24003005	0	0	37.53269958	-1.801461458	-101.8806534	1.0
75	-1.24003005	0	0	31.02151871	-5.984018803	-106.6769485	1.0
76	-1.24003005	0	0	26.82139969	-11.29177856	-110.4468994	1.0
77	-1.24003005	0	0	22.04315376	-14.88828468	-113.9884338	1.0
78	-1.24003005	0	0	16.9156723	-18.02376747	-115.704277	1.0
[RightForeArm]
74	-2.847419977	0	0	9.593806267	7.67117691	186.9488373	1.0
75	-2.847419977	0	0	11.89099121	9.761692047	190.3733215	1.0
76	-2.847419977	0	0	13.70186234	11.2954998	193.0796204	1.0
77	-2.847419977	0	0	14.65498734	10.80732155	194.4944458	1.0
78	-2.847419977	0	0	15.88526344	8.512841225	195.602417	1.0
[RightHand]
74	-2.258270025	0	0	9.149040222	3.053233862	180.8006592	1.0
75	-2.258270025	0	0	11.06267929	4.314050674	181.7211609	1.0
76	-2.258270025	0	0	12.42543411	4.98361969	180.551239	1.0
77	-2.258270025	0	0	13.28928471	5.016250134	180.2913971	1.0
78	-2.258270025	0	0	14.71231174	3.597406149	179.7445831	1.0
[LeftUpLeg]
74	0.9119900465	0	0	-8.596309662	-3.07840538	88.00513458	1.0
75	0.9119900465	0	0	-2.510421991	-2.712720156	88.02749634	1.0
76	0.9119900465	0	0	4.229997158	-3.365667105	88.52314758	1.0
77	0.9119900465	0	0	6.087471485	-7.332171917	88.40110779	1.0
78	0.9119900465	0	0	5.078611851	-6.123263836	87.90222931	1.0
[LeftLeg]
74	0	-4.371409893	0	24.29981995	-6.800562859	84.38932037	1.0
75	0	-4.371409893	0	10.86210823	-2.061871052	89.12342834	1.0
76	0	-4.371409893	0	-1.441804171	1.127904892	90.23041534	1.0
77	0	-4.371409893	0	-3.030150175	6.729642391	89.58493042	1.0
78	0	-4.371409893	0	-2.170405149	0.9648403525	88.64076233	1.0
[LeftFoot]
74	0	-3.918009996	0	73.70497131	64.46998596	136.2307739	1.0
75	0	-3.918009996	0	66.17800903	66.21601868	120.6143494	1.0
76	0	-3.918009996	0	67.79107666	66.49249268	113.3025742	1.0
77	0	-3.918009996	0	65.98561096	66.62037659	110.9405975	1.0
78	0	-3.918009996	0	73.39349365	64.67153168	121.096199	1.0
[LeftToeBase]
74	0	-0.5927900076	1.367989898	0	0	0	1.0
75	0	-0.5927900076	1.367989898	0	0	0	1.0
76	0	-0.5927900076	1.367989898	0	0	0	1.0
77	0	-0.5927900076	1.367989898	0	0	0	1.0
78	0	-0.5927900076	1.367989898	0	0	0	1.0
[RightUpLeg]
74	-0.9119900465	0	0	-26.22263527	-23.66921425	99.18109894	1.0
75	-0.9119900465	0	0	-20.50080681	-23.30066109	98.69490051	1.0
76	-0.9119900465	0	0	-10.84573174	-24.10431862	96.46143341	1.0
77	-0.9119900465	0	0	5.634463787	-30.03717613	89.09121704	1.0
78	-0.9119900465	0	0	10.28122902	-33.58937836	89.62768555	1.0
[RightLeg]
74	0	-4.371409893	0	27.12467194	-3.818800211	76.18547058	1.0
75	0	-4.371409893	0	29.48837662	-6.06841898	75.10399628	1.0
76	0	-4.371409893	0	25.28318977	-1.346339941	76.44645691	1.0
77	0	-4.371409893	0	4.561627388	41.93502426	85.14913177	1.0
78	0	-4.371409893	0	13.2539835	-5.101056099	81.23362732	1.0
[RightFoot]
74	0	-3.918009996	0	126.750885	49.48155594	192.3289337	1.0
75	0	-3.918009996	0	126.3162689	51.49494553	192.289917	1.0
76	0	-3.918009996	0	126.4871674	51.52792358	192.4698181	1.0
77	0	-3.918009996	0	120.3596344	62.23080826	180.7864838	1.0
78	0	-3.918009996	0	50.5328064	67.84280396	103.689415	1.0
[RightToeBase]
74	0	-0.5927900076	1.367989898	0	0	0	1.0
75	0	-0.5927900076	1.367989898	0	0	0	1.0
76	0	-0.5927900076	1.367989898	0	0	0	1.0
77	0	-0.5927900076	1.367989898	0	0	0	1.0
78	0	-0.5927900076	1.367989898	0	0	0	1.0
[EndOfFile]
